<svg version="1.2" xmlns="http://www.w3.org/2000/svg" viewBox="0 0 203 201" width="203" height="201">
	<title>programmer-clipart-svg</title>
	<style>
		.s0 { fill: #256865 } 
		.s1 { fill: #21635e } 
		.s2 { fill: #195b58 } 
		.s3 { fill: #3b7271 } 
		.s4 { fill: #dbb49a } 
		.s5 { fill: #cca489 } 
		.s6 { fill: #c49d82 } 
		.s7 { fill: #60605f } 
		.s8 { fill: #565655 } 
		.s9 { fill: #565654 } 
		.s10 { fill: #4f4f4e } 
		.s11 { fill: #54310b } 
		.s12 { fill: #666666 } 
		.s13 { fill: #515150 } 
		.s14 { fill: #965922 } 
		.s15 { fill: #56340f } 
		.s16 { fill: #275b59 } 
		.s17 { fill: #45827f } 
		.s18 { fill: #e8c5af } 
		.s19 { fill: #eaeae8 } 
	</style>
	<g>
		<path class="s0" d="m102.5 52.6c9.8 0 20.5-0.4 30.1 1.5 8.7 1.7 18.3 4.7 26.3 8.4 5.7 2.7 11.2 6.7 15.8 11 2.1 2 3.5 4.5 4.9 7 3.5 6.3 6.8 12.2 9.2 19 2.5 7 5 14.1 7.5 21.1 2.1 6 3.8 11.9 5 18.2 1 5.5 2.7 10.1 0.9 15.9-2.2 7.2-8.3 12.4-14.2 17-4.7 3.6-9.5 7.1-14.8 9.8-5.8 2.9-12 3.6-18.4 4.7-8.5 1.4-17.2 0.2-25.7 0.8-8.2 0.6-15.9 0.7-24.1 0.3-1 0-1.8 0-2.6-0.1v-134.6z"/>
		<path class="s1" d="m201.3 137.5c-1.2-6.3-2.9-12.2-5-18.2-2.5-7-5-14.1-7.5-21.1-2.4-6.8-5.7-12.7-9.2-19-1.4-2.5-2.8-5-4.9-7-4.6-4.3-10.1-8.3-15.8-11-8-3.8-17.7-6.8-26.3-8.4-8.7-1.7-18.1-1.6-27-1.5 6.1 0.1 12.2 0.4 18 1.5 8.7 1.7 18.3 4.7 26.3 8.4 5.7 2.7 11.2 6.7 15.8 11 2.1 2 3.5 4.5 4.9 7 3.5 6.3 6.8 12.2 9.2 19 2.5 7 5 14.1 7.5 21.1 2.1 6 3.8 11.9 5 18.2 1 5.5 2.7 10.1 0.9 15.9-2.2 7.2-8.3 12.4-14.2 17-4.7 3.6-9.5 7.1-14.8 9.8-5.8 2.9-12 3.6-18.4 4.7-2.3 0.4-4.6 0.6-7 0.7 5.3 0.1 10.7 0.2 16-0.7 6.4-1.1 12.6-1.8 18.4-4.7 5.3-2.7 10.1-6.1 14.8-9.8 5.9-4.6 12-9.8 14.2-17 1.8-5.8 0.2-10.3-0.9-15.9z"/>
		<path class="s1" d="m120.1 185.7c-3.4 0.2-6.8 0.4-10.1 0.5 6.4 0.1 12.6 0 19.1-0.5 0.8-0.1 1.6-0.1 2.4-0.1-3.8-0.1-7.6-0.2-11.4 0.1z"/>
		<g>
			<g>
				<path class="s2" d="m183.8 150.4c-4-4.4-8.9-7.5-14.6-9.3-1.6-0.5-2.3 2-0.7 2.5 5.2 1.6 9.8 4.6 13.5 8.7 1.1 1.1 3-0.7 1.8-1.9z"/>
			</g>
		</g>
		<path class="s3" d="m100.6 52.6c-9.8 0-20.5-0.4-30.1 1.5-8.7 1.7-18.3 4.7-26.3 8.4-5.7 2.7-11.2 6.7-15.8 11-2.1 2-3.5 4.5-4.9 7-3.5 6.3-6.8 12.2-9.2 19-2.5 7-5 14.1-7.5 21.1-2.1 6-3.8 11.9-5 18.2-1 5.5-2.7 10.1-0.9 15.9 2.2 7.2 8.3 12.4 14.2 17 4.7 3.6 9.5 7.1 14.8 9.8 5.8 2.9 12 3.6 18.4 4.7 8.5 1.4 17.2 0.2 25.7 0.8 8.2 0.6 15.9 0.7 24.1 0.3 1 0 1.8 0 2.6-0.1v-134.6z"/>
		<path class="s4" d="m102.3 10.4c-2.9 0.1-5.7 0.5-8.5 1.2-7 1.7-17.3 5.9-21.4 12-5.2 7.7-6.6 18.5-6.9 27.4-0.2 8.6 0.5 17.2 2.3 25.6 2 9.5 3.9 20.2 8.8 28.8 5.1 9 14.7 18.8 25.7 23.3z"/>
		<path class="s5" d="m100.9 10.8c2.9 0.1 5.7 0.5 8.5 1.2 7 1.7 17.3 5.9 21.4 12 5.2 7.7 6.6 18.5 6.9 27.4 0.2 8.6-0.5 17.2-2.3 25.6-2 9.5-3.9 20.2-8.8 28.8-5.1 9-14.7 18.8-25.7 23.3z"/>
		<path class="s6" d="m138.7 51.4c-0.2-8.9-1.7-19.8-6.9-27.4-4.1-6.1-14.4-10.3-21.4-12-2.8-0.7-5.6-1-8.5-1.2v3c7 1.8 17.2 5.9 21.3 12 5.2 7.7 6.6 18.5 6.9 27.4 0.2 8.6-0.5 17.2-2.3 25.6-2 9.5-3.9 20.2-8.8 28.8-3.7 6.5-9.8 13.5-17.1 18.6v3c11-4.5 20.6-14.3 25.7-23.3 4.9-8.6 6.8-19.2 8.8-28.8 1.8-8.5 2.6-17.1 2.3-25.7z"/>
		<path class="s7" d="m162.2 191h-125.3c-1.4 0-2.6-1.1-2.6-2.6v-86.4c0-1.4 1.1-2.6 2.6-2.6h125.3c1.4 0 2.6 1.1 2.6 2.6v86.4c0 1.5-1.2 2.6-2.6 2.6z"/>
		<path class="s8" d="m163.2 200.7h-129c-0.4 0-0.7-0.3-0.7-0.7v-5.9c0-0.4 0.3-0.7 0.7-0.7h129c0.4 0 0.7 0.3 0.7 0.7v5.9c0 0.4-0.3 0.7-0.7 0.7z"/>
		<path class="s9" d="m161.8 99.5h-63.9v91.5h63.8c1.4 0 2.6-1.1 2.6-2.6v-86.4c0-1.4-1.1-2.5-2.5-2.5z"/>
		<path class="s10" d="m162.8 193.4h-64.9v7.3h64.8c0.4 0 0.7-0.3 0.7-0.7v-5.9c0.1-0.4-0.3-0.7-0.6-0.7z"/>
		<path class="s11" d="m84.4 42.9c3.1 2.5 6.9 4 10.6 5.3 5.5 1.9 11.3 3.4 17.1 2.9 8.1-0.6 14.1-5.1 20.9-9 7-4 13.8-9.2 16.9-16.9-3.7 0.3-8.6-0.3-9.3-4-0.2-1.1 0.1-2.3-0.1-3.5-0.4-1.9-2.3-3.6-1.7-5.5 0.3-0.8 1.1-1.5 1.3-2.3 0.5-2-2.1-3.3-4.2-3.4-3.7-0.2-7.4 0.9-11 0.5-5.1-0.6-9.3-3.9-14.1-5.7-7.3-2.6-15.8-1.2-22.5 2.8-6.5 3.9-15.2 11.4-14.8 19.9 0.3 6.8 5.7 14.7 10.9 18.9z"/>
		<path class="s11" d="m70.6 47.8c-4.5 4.5-4.2 8.5-4.4 14.3 0 0.8-1.9-3.2-2-3.3-0.9-2.2-1.6-4.5-2.2-6.9-1.1-4.7-1.6-9.5-1-14.3 0.5-3.9 1.7-7.7 4-10.9 0.7-1 8-8.8 8.1-5.1 0 0.8-0.4 1.4-0.6 2.2-1.3 4.9 4 9.3 5.3 13.6 1.3 4-1.5 4.7-3.9 7-1.1 1.1-2.2 2.2-3.3 3.4z"/>
		<path class="s12" d="m45.8 187.6h-3.6c-1.4 0-2.6-1.2-2.6-2.6v-77.3c0-1.4 1.2-2.6 2.6-2.6h3.6c1.4 0 2.6 1.2 2.6 2.6v77.3c0 1.4-1.2 2.6-2.6 2.6z"/>
		<path class="s13" d="m161.8 99.5l-5.5 83-58.4 8.5h63.8c1.4 0 2.6-1.1 2.6-2.6v-86.4c0-1.4-1.1-2.5-2.5-2.5z"/>
		<g>
			<g>
				<path class="s14" d="m85.2 23.5c9.4 13.8 26.6 18 42.2 13.7 1.3-0.4 0.8-2.5-0.6-2.1-14.6 4-30.9 0.3-39.8-12.7-0.7-1.1-2.6 0-1.8 1.1z"/>
			</g>
		</g>
		<g>
			<g>
				<path class="s14" d="m92.7 21.7c4.2 3.4 8.3 7 13.5 8.6 5.8 1.7 12.3 1.7 18.3 1.4 1.4-0.1 1.4-2.3 0-2.2-5.4 0.4-11 0.3-16.3-0.9-5.6-1.3-9.7-4.9-14-8.4-1.1-0.9-2.6 0.6-1.5 1.5z"/>
			</g>
		</g>
		<g>
			<g>
				<path class="s14" d="m99.1 16.4c8 7.5 18.8 7.8 29.1 7.4 1.4-0.1 1.4-2.2 0-2.2-9.7 0.4-20.1 0.4-27.6-6.8-1-0.8-2.5 0.7-1.5 1.6z"/>
			</g>
		</g>
		<g>
			<g>
				<path class="s15" d="m79.9 18.7c7.4-8.5 21.1-15.6 31.5-8.9 7.9 5.2 17 7.2 25.3 1.5 2.7-1.9 0.1-6.4-2.6-4.5-5.8 4-12.5 3.5-18.3-0.3-4.2-2.7-8-5.1-13.2-4.9-9.9 0.3-20 6.1-26.3 13.4-2.2 2.6 1.4 6.3 3.6 3.7z"/>
			</g>
		</g>
		<g>
			<g>
				<path class="s16" d="m21 152.2q5.5-6.2 13.5-8.7c1.6-0.5 0.9-3-0.7-2.5-5.7 1.8-10.6 4.9-14.6 9.3-1.1 1.3 0.7 3.1 1.8 1.9z"/>
			</g>
		</g>
		<g>
			<g>
				<path class="s17" d="m57.7 59.8c-8.3 1.6-17.4 4.7-24.2 9.8-6.5 5-10.3 13.3-13.6 20.6-7.8 16.9-14 34.4-17.8 52.6-0.8 4.1 5.4 5.8 6.2 1.7 3.4-16.4 8.9-31.9 15.5-47.3 3-7 6.4-15.8 12-21.1 6-5.7 15.7-8.5 23.6-10 4.1-0.8 2.4-7.1-1.7-6.3z"/>
			</g>
		</g>
		<g>
			<g>
				<path class="s18" d="m67.4 59.1c1.7 13 2.7 26.1 9.3 37.8 1 1.8 3.8 0.2 2.8-1.6-6.2-11.2-7.2-23.7-8.8-36.2-0.4-2-3.6-2-3.3 0z"/>
			</g>
		</g>
		<g>
			<g>
				<path class="s19" d="m79.2 153.1c-5-4-10-8-15-12.1q0 1.2 0 2.4 8.3-6.6 16.5-13.2c1.7-1.4-0.7-3.7-2.4-2.4q-8.3 6.6-16.5 13.2c-0.7 0.5-0.7 1.9 0 2.4 5 4 10 8 15 12.1 1.7 1.4 4.1-1 2.4-2.4z"/>
			</g>
		</g>
		<g>
			<g>
				<path class="s19" d="m118.9 162.3c5.7-3 11.4-6 17-9 1-0.5 1-1.9 0.3-2.6-4.6-5.4-9.1-10.7-13.7-16.1-1.4-1.7-3.8 0.7-2.4 2.4 4.6 5.4 9.1 10.7 13.7 16.1 0.1-0.9 0.2-1.8 0.3-2.6-5.7 3-11.4 6-17 9-1.8 0.9-0.1 3.8 1.8 2.8z"/>
			</g>
		</g>
		<g>
			<g>
				<path class="s19" d="m77.1 176.4q22.2-30.5 44.4-60.9c1-1.3-1.3-2.6-2.2-1.3q-22.2 30.5-44.4 60.9c-1.1 1.3 1.2 2.6 2.2 1.3z"/>
			</g>
		</g>
	</g>
</svg>